<?xml version="1.0" encoding="UTF-8"?>
<svg version="1.1" viewBox="0 0 2048 1253" width="1280" height="1280" xmlns="http://www.w3.org/2000/svg">
<path transform="translate(828,238)" d="m0 0h51l34 4 25 5 23 6 22 3 51 4 42 6 27 5 1 1v6l11-8 28-12 25-9 23-6 25-4 9-1h52l29 4 25 6 21 7 25 11 19 10 21 14 13 10 15 13 18 18 9 11 12 15 12 19 10 18 10 23 9 27 5 22 4 28 1 15v19l-2 26-5 28-6 22-6 17-10 23-13 23-15 22-9 11-9 10-7 8-7 7-7 8-3 5v11l-3 23 1 10 8 26 5 25 2 24v40l-3 27-6 24-7 21-11 24-10 18-15 22-12 14-15 16-8 7-13 11-19 13-17 10-21 10-25 9-24 6-24 4-22 2h-32l-14-2-3-1h-10l-13 4-37 9-26 5-36 5-24 2h-40l-34-3-44-8-33-9-26-9-31-13-24-12-27-16-20-14-16-12-16-13-11-9-27-27-9-11-14-17-14-19-12-18-12-20-12-23-9-19-13-35-10-35-6-26-6-30-5-17-15-41-8-29-6-30-2-17-1-22v-16l1-26 3-25 7-33 9-29 10-25 12-25 13-22 12-17 10-13 11-14 12-13 15-15 11-9 15-12 18-13 25-15 19-10 26-11 27-9 28-7 26-4zm3 203-18 4-16 8-11 8-17 17-7 10-6 12-5 16-2 19 2 21 6 18 8 14 11 13 13 11 13 8 16 6 15 3h24l15-4 14-6 14-9 9-7 5-5 7-8 8-14 5-12 4-18v-18l-2-14-5-15-9-16-9-12-10-10-13-9-13-6-14-4-7-1zm128 86-2 1v11l2 4 3 1 144 1 15 2 15 5 15 10 12 11 6 9 5 10 3 12v26l-4 15-6 11-11 12-15 11-11 5-18 4-10 1-64 1-12 1 4-6 9-7 3-6-3-5-3-2-6 1-13 10-12 11-6 10 1 7 8 9 11 9 11 8 8 1 2-2-1-7-7-9-2-5h60l26-2 20-5 16-7 10-7 10-9 8-9 7-12 4-12 2-13v-27l-2-14-6-16-7-12-8-10-7-7-11-7-10-5-21-5-26-2zm-30 162-25 1-21 3-14 5-11 7-12 11-8 8-9 14-7 16-3 14v25l4 17 8 16 8 11 9 10 13 10 15 7 17 4 24 1h28l4-1h20l38 1h35l14-1 1-1v-12l-7-1-120-1h-22l-18-4-12-4-14-8-11-11-8-13-6-16-2-11v-11l2-12 6-16 9-14 5-6 13-9 15-6 18-4 14-1 51-1 8-3 3-6v-4l-10-3-26-1zm239 77-16 2-21 8-13 7-12 11-9 9-7 11-9 19-4 12-1 6v20l3 14 8 19 7 12 9 11 10 9 14 9 15 6 12 3 7 1h17l16-3 13-5 17-9 11-9 9-9 8-13 7-15 4-14 2-16-1-14-5-19-10-19-8-10-12-12-14-9-19-8-15-4z" fill="#522AC2"/>
<path transform="translate(1225,238)" d="m0 0h52l29 4 25 6 21 7 25 11 19 10 21 14 13 10 15 13 18 18 9 11 12 15 12 19 10 18 10 23 9 27 5 22 4 28 1 15v19l-2 26-5 28-6 22-6 17-10 23-13 23-15 22-9 11-9 10-7 8-7 7-7 8-3 5v11l-3 23 1 10 8 26 5 25 2 24v40l-3 27-6 24-7 21-11 24-10 18-15 22-12 14-15 16-8 7-13 11-19 13-17 10-21 10-25 9-24 6-24 4-22 2h-32l-14-2-3-1h-10l-4 1-3-3-12-6-28-11-28-13-20-11-12-8-18-14-18-18-11-14-3-6-10-13-15-25-8-20-4-12-4-16-4-8-3-17-3-34v-9l1-4-1-2 15-1 4-1h20l38 1h35l14-1 1-12-133-1 2-2h4v-7l7-30 5-16 12-31 12-23 16-25 13-15 2-5 3-9 6-7 2 1-6 8-2 4 1 7 7 8 11 9 11 8 8 1 1-1-1-7-7-9-1-5 60-1 26-2 20-5 16-7 10-7 10-9 9-11 7-14 3-12 1-8v-27l-1-12 2 2 6 20 6-1 5-3 1-4v-36l-3-26-4-23-5-22-8-28-10-24-8-16-6-10-13-22-12-18-11-14-9-11-12-13-15-14-11-10-14-11-3-3 2-4 9-6 15-9 9-7 11-9 25-11 27-10 26-7 25-4zm-57 528-16 2-21 8-13 7-12 11-9 9-7 11-9 19-4 12-1 6v20l3 14 8 19 7 12 9 11 10 9 14 9 15 6 12 3 7 1h17l16-3 13-5 17-9 11-9 9-9 8-13 7-15 4-14 2-16-1-14-5-19-10-19-8-10-12-12-14-9-19-8-15-4z" fill="#D05D80"/>
<path transform="translate(1225,238)" d="m0 0h52l29 4 25 6 21 7 25 11 19 10 21 14 13 10 15 13 18 18 9 11 12 15 12 19 10 18 10 23 9 27 5 22 4 28 1 15v19l-2 26-5 28-6 22-6 17-10 23-13 23-15 22-9 11-9 10-7 8-7 7-7 8-4 6-8 1-11 4-5-1-7-10-9-15-10-14-9-10-10-10-17-13-19-13-16-10-22-11-31-11-24-6-21-5-2-46-3-27-5-26-9-33-6-18-6-14-8-16-12-23-8-10-5-5-10-15-11-14-9-11-12-13-15-14-11-10-14-11-3-3 2-4 9-6 15-9 9-7 11-9 25-11 27-10 26-7 25-4z" fill="#FCB266"/>
<path transform="translate(535,750)" d="m0 0 2 3 6 17 3 5 3 9 3 5 6 9 3 3v2l4 2 9 11 8 9v2l3 1 7 8 5 4 9 9v2l3 1v2h2v2l4 2 8 7 16 12 11 8 12 8 9 5 16 9 19 9 31 12 29 9 26 6 18 3 20 2h53l47-4 8 1 4 8 1 6h2l7 20 8 18 6 9 9 14 9 12 4 7 12 14 15 15 16 12 19 12 23 12 25 11 21 8 14 7v4l-45 11-26 5-36 5-24 2h-40l-34-3-44-8-33-9-26-9-31-13-24-12-27-16-20-14-16-12-16-13-11-9-27-27-9-11-14-17-14-19-12-18-12-20-12-23-9-19-13-35-10-35-6-26-6-30z" fill="#356AF1"/>
<path transform="translate(1058,300)" d="m0 0 5 1 6 1-1 4 14 12 8 7 10 9 15 14 11 12 11 14 11 15 11 18 15 25 8 16 11 27 9 32 6 31 3 21 1 12v36l-2 5-8 4-3-1-4-10-3-10-8-20-7-12-8-10-10-9-12-7-16-5-19-3-17-1h-138l1 11 1 3 3 1 144 1 15 2 15 5 15 10 12 11 6 8 6 12 3 12v26l-4 15-6 11-11 12-13 10-14 7-18 4-10 1-76 1 2-5 11-9 2-5-3-5-5-1-9 5-10 9-5 4-4 2-2 2-1-5v-8l1-7-6-19-8-17-8-15-3-7-4-8-3-12-3-1-3-6-5-1-1-7-5-1-5-5-2-5-4 5-4 4-4 7h-2l-1 5-5 4-9 13-9 6h-2v2h-2l-2 5-2 2-4 3-17 10-12 3h-3l-14 2-11-3-22-1v-2l-5-1-9-2-3-1v-2l-4-1-6-4-8-6v-2l-4-2-6-7v-2l-6-3v-2h-2v-2l-3-1-7-11-2-3-1-11-3-12-2-11v-32l4-7 3-9 5-9 8-12 3-3h2v-2h2v-2l6-4 7-6 5-3h2v2l-10 8-14 14-7 10-6 12-5 16-2 19 2 21 6 18 8 14 11 13 11 9 11 7 10 5 13 4 11 2h24l15-4 14-6 14-9 9-7 5-5 8-10 9-17 4-13 2-11v-18l-2-14-5-15-9-16-9-12-9-9-13-9-13-6-14-4-7-1h-25l-18 4-11 5-4-1 6-3 6-4 11-3 15-2h19l11 1 8 3 9 2 12 5 8 5 1 3 4 2 7 8v2l6 3v2h2l4 6 3 7 4 7v2h3l6 11 1 5h2l3 6h8l1-4 3-1 1-7 6-12 3-17 3-12 7-26 9-25 12-26 10-19 10-18 9-12 2-3h2l2-5 8-10 5-8h2l2-5 5-6z" fill="#6B34AB"/>
<path transform="translate(1113,273)" d="m0 0 9 3 4 2v2l-13 2 14 6v2l10 3 17 5 22 8 14 7 9 3 20 10 16 10 11 8 11 7 13 10 11 10 8 7 10 9v2l4 2 7 7v2h2l7 8v2h2l9 11 9 14 2 5h2l1 4h2l9 16 8 10 10 15 15 29 8 16 8 20 4 9 8 25 4 17 3 11 3 15 6 39 2 22 1 39 6-7 1 3-1 5-5 10-5 1-15 5-5-1-7-10-9-15-10-14-9-10-10-10-17-13-19-13-16-10-22-11-31-11-24-6-21-5-2-46-3-27-5-26-9-33-6-18-6-14-8-16-12-23-8-10-5-5-10-15-11-14-9-11-12-13-15-14-11-10-14-11-3-3 2-4 9-6 15-9 9-7 7-6z" fill="#CC9965"/>
<path transform="translate(1155,400)" d="m0 0 6 5 7 11 13 25 9 19 6 17 7 24 5 19 5 30 2 19 1 23v23l12 2 26 6 33 11 25 12 14 8 17 12 14 10 13 11 14 14 10 14 13 21 4 6-2 5-3 7h-2v2l-10 7-16 8-18 8-13 5-13 4-8 3-27 9-24 6-2 1h-7l-1 1 5 19 1 6 1 26v18l-2 15-6 15-3 7-4 7h-2l-2 5-4 5-11 9-3 1v2l-7 4-10 6-5 1v2l-10 4-28 4-18 1-22-5-16-8v-2l-5-2-4-3v-2h-2l-5-6-2-1v-2l-4-2-5-5-5-8-4-8-2-2-5-11v-2h-2v-3l-2-1-2-5-3-9-2-1v-2l-6-1-2-1-11 2-17-1-40 1h-22l-6 1h-11l-8-2-2-1h-7l-3-4 15-1 4-1h20l38 1h35l14-1 1-12-133-1 2-2h4v-7l7-30 5-16 12-31 12-23 16-25 13-15 2-5 3-9 6-7 2 1-6 8-2 4 1 7 7 8 11 9 11 8 8 1 1-1-1-7-7-9-1-5 60-1 26-2 20-5 16-7 10-7 10-9 9-11 7-14 3-12 1-8v-27l-1-12 2 2 6 20 6-1 5-3 1-4v-36l-3-26-4-23-5-22-8-28-10-24-8-16-18-30zm13 366-16 2-21 8-13 7-12 11-9 9-7 11-9 19-4 12-1 6v20l3 14 8 19 7 12 9 11 10 9 14 9 15 6 12 3 7 1h17l16-3 13-5 17-9 11-9 9-9 8-13 7-15 4-14 2-16-1-14-5-19-10-19-8-10-12-12-14-9-19-8-15-4z" fill="#EF6865"/>
<path transform="translate(828,238)" d="m0 0h51l34 4 25 5 23 6 17 3 18 6 9 4 2 5-5-2-14-7-8-3h-10l-1 1h-9l-17 3-6 1h-17l-23 3-22 4-10 3-11 2-21 8-31 13-20 9-15 8-18 11-22 14-17 12-8 6-6 5h-2v2l-11 9h-2l-1 3-16 14-3 4h-2v2h-2v2h-2l-1 3h-2l-2 4-7 7-10 13-4 4-12 16-5 6-1 3h-2l-1 4-10 17-7 13-8 16-3 5-8 16-5 12-6 16-5 15-7 22-6 25-4 19-2 7-2 25-1 12 3 40 1 2 2 20 1 5h2l1 11 4 16 4 4 1 3 6 5 7 8 8 9 8 11 2 4h2l1 4 3 1 7 8 6 8v2h2l6 7v2h2v2l4 2 13 11 8 6v2l5 2 12 9 5 4 5 3 11 8 13 8 23 11 25 10 19 7-4 1-26-9-27-11-16-8-14-8-16-10-14-10-5-4-13-10-10-8v-2h-2l-7-8-5-4-12-12-7-8-11-13-4-5-5-5-6-8-3-6-3-5-3-9-4-9-4-11-2-3-17-47-8-29-6-30-2-17-1-22v-16l1-26 3-25 7-33 9-29 10-25 12-25 13-22 12-17 10-13 11-14 12-13 15-15 11-9 15-12 18-13 25-15 19-10 26-11 27-9 28-7 26-4z" fill="#7D48C1"/>
<path transform="translate(1431,778)" d="m0 0h2l9 30 5 25 2 24v40l-3 27-6 24-7 21-11 24-10 18-15 22-12 14-15 16-8 7-13 11-19 13-17 10-21 10-25 9-24 6-24 4-22 2h-32l-14-2-3-1h-10l-3 1v-5l7-2h6l2-1v-2l17-8 12-5 10-7 23-12 3-2h3v-2l5-1 1-3 8-4 11-8 8-5 5-5 8-5h2l1-3 6-4 11-10 7-6 6-7h2v-2h2v-2l4-4h2l1-3h2l2-4 5-5 9-11 4-3 4-7 7-10 8-10 4-4 6-9 4-8 4-6 6-11 8-15 4-6 4-10 4-11 3-3 6-16 2-6h2l1-6 7-15 5-14 3-4 2-5 1-10 1-6 1-18 2-1 2 1z" fill="#F47280"/>
<path transform="translate(1006,684)" d="m0 0 2 1-6 8-2 4 1 7 7 8 11 9 11 8 3 1h7l4-1v-8l4-7 7-1 5-1 23-1h7l4-2h15l13 1 3 1 5-4 5-1 1-2 2 2 4 1 3 1 3-1 7 1v-2l13-5 5 2-2 4h2l1 7-2 5 1 12v14l-3 8-2 3h-2v2l-18 6-11 2v2h-2l-1 3-11 4-8 4-1 2-6 2-1 2-5 5-6 7-2 4h-2v2h-2v2h-2l-2 8h-2l-2 5h-2v2h-2l1 7h-2l-2 5-2 3-4 16-6 3-26-1h-106l-1 1h-6l2-2h4v-7l7-30 5-16 12-31 12-23 16-25 13-15 2-5 3-9z" fill="#D05D80"/>
<path transform="translate(1677,586)" d="m0 0h14l16 3 12 5 10 6 13 11 8 10 8 16 3 11 1 8v14l-3 15-5 12-10 14-12 12-13 8-10 4-13 3-8 1h-9l-17-3-13-5-11-7-11-10-10-14-6-13-3-10-1-8v-13l2-12 6-16 7-11 9-10 7-6 9-6 11-5 12-3z" fill="#4F79F0"/>
<path transform="translate(1155,400)" d="m0 0 6 5 7 11 13 25 9 19 6 17 7 24 5 19 5 30 2 19 1 23v23l12 2 26 6 33 11 25 12 14 8 17 12 14 10 13 11 14 14 10 14 13 21 4 6-2 5-3 7h-2v2l-10 7-16 8-18 8-13 5-13 4-8 3-27 9-24 6-2 1h-7l-1 1 5 19 1 6 1 26v18l-2 15-6 15-3 7-4 7h-2l-2 5-4 5-11 9-3 1v2l-7 4-10 6-5 1v2l-10 4-28 4-18 1-22-5-16-8v-2l-5-2-4-3v-2h-2l-5-6-2-1v-2l-4-2-5-5-5-8-4-8-2-2-5-11v-2h-2v-3l-2-1-2-5-3-9-2-1v-2l-6-1-2-1-11 2-17-1-40 1h-22l-6 1h-11l-8-2-2-1h-7l-3-4 15-1 4-1h20l38 1h35l14-1 1-12-111-1-15-1v-1h114l18 1 5-2 3-11 2-7 4-6h2l-1-7h2v-2h2l2-5h2v-6h2v-2h2v-2h2v-2h2l2-5 2-3 5-5 1-2h2l1-2 4-3h3l1-3 8-4h3l1-2 7-2 1-2h2v-2l5-2 8-2 12-4h4v-2h2l2-5 2-6v-20l-1-8 2-5v-5h-2v-4l-3-1-11 4h-2v2h-8l-3 1-3-2h-4l-1-2-5 2v2l-6 3-8-1-15-1h-9l-3 2h-15l-19 1-7 2-3 4-2 10-6 2 1-7-4-6-4-5-1-5 60-1 26-2 20-5 16-7 10-7 10-9 9-11 7-14 3-12 1-8v-27l-1-12 2 2 6 20 6-1 5-3 1-4v-36l-3-26-4-23-5-22-8-28-10-24-8-16-18-30zm137 239-2 4v-2l-8-1-5 2v2l-6-3h-4l-1 2-3-1v2l-7 1-4-3h-13l-2 8-2 3v-3h-2l-3 9v5h-2v2l-4 2-2 4 1 4h-2l-4 7-7 14-1 8-3 7-1 5-1 4-1 8-3 11v5l-2 2 7 8 7 5 3 3 9 4 6 4 20 10 9 4 6 3 8 2h19l12-2 11-1 16-4 15-5 16-8 11-7 9-7 1-6 3-1 5-10 1-8-5-10-2-3-2-8-9-8-4-5-2-1-1-4-7-5v-2l-5-2-4-5-5-4h-3l-1-2-3-3h-2l-2-4-8-2-4-4-8-4-3-2-5-2-8-4-1-3-4 1-1-6zm-124 127-16 2-21 8-13 7-12 11-9 9-7 11-9 19-4 12-1 6v20l3 14 8 19 7 12 9 11 10 9 14 9 15 6 12 3 7 1h17l16-3 13-5 17-9 11-9 9-9 8-13 7-15 4-14 2-16-1-14-5-19-10-19-8-10-12-12-14-9-19-8-15-4z" fill="#ED6871"/>
<path transform="translate(942,543)" d="m0 0 11 1 13 9 4-1h26l29 1 12 1h5l1 1h41l43 4 8 2 6 3 12 2 5 14 4 9 5 8 2 13-5 5-39 9-18 5h-2v2l-21 8-25 12-21 13-9 4-11 8-9 8-4 2-2 2-1-5v-8l1-7-6-19-8-17-8-15-3-7-4-8-3-12-3-1-3-6-5-1-1-7-5-1-5-5-2-5-4 5-4 4-4 7h-2l-1 5-3 2v-4h2l1-4 4-9 3-12 1-13z" fill="#6B34AB"/>
<path transform="translate(911,685)" d="m0 0h58l9 2 11 7 7-1 4-2-3 13-10 11-10 14-12 20-10 19-14 36-7 27-4 21-6 2h-16l-18-4-12-4-14-8-12-12-8-13-6-16-2-11v-11l2-12 6-16 9-14 6-7 13-9 15-6 18-4 14-1 51-1 7-2 3-6 1-4-10-2-26-1h-16l-25 1-21 3-12 4-3-1 14-6 15-4z" fill="#522AC2"/>
<path transform="translate(1166,421)" d="m0 0 5 5 9 17 13 32 9 32 6 31 3 21 1 12v36l-2 5-8 4-3-1-4-10-3-10-8-20-7-12-8-10-10-9-12-7-16-5-19-3-17-1h-138l1 11 1 3 3 1 144 1 15 2 15 5 15 10 12 11 6 8 6 12 3 12v26l-4 15-6 11-11 12-13 10-14 7-18 4-10 1-76 1 2-5 11-9 2-5-3-5-3-3 8-4 13-8 23-12 23-9h3v-2l24-7 26-6 9-2 4-4-2-14-7-10-3-9-3-8v-3h-7l-7-2-7-3-17-2-13-1-18-2h-42l-5-1-17-1-28-1h-22l-4 1-13-9-11-1-1 1-1 15-6 18-3 5h-2l-1 5-10 14-9 6h-2v2h-2l-2 5-2 2-4 3-17 10-12 3h-3l-14 2-11-3-22-1v-2l-5-1-9-2-3-1v-2l-4-1-6-4-8-6v-2l-4-2-6-7v-2l-6-3v-2h-2v-2l-3-1-7-11-2-3-1-11-3-12-2-11v-32l4-7 3-9 5-9 8-12 3-3h2v-2h2v-2l6-4 7-6 5-3h2v2l-10 8-14 14-7 10-6 12-5 16-2 19 2 21 6 18 8 14 11 13 11 9 11 7 10 5 13 4 11 2h24l15-4 14-6 14-9 9-7 5-5 8-10 9-17 4-13 2-11v-18l-2-14-5-15-9-16-9-12-9-9-13-9-13-6-14-4-7-1h-25l-18 4-11 5-4-1 6-3 6-4 11-3 15-2h19l11 1 8 3 9 2 12 5 8 5 1 3 4 2 7 8v2l6 3v2h2l4 6 3 7 7 14 3 14 2 9 3 2v2l9 1 7-6 7-1 19-1h49l21-1h18l35 1 19 3 22 2 7 3v2l4 1 5 5 9 6 11 16v2h2l3 8 2 1 3 7v5h6l-1-5 2-5-1-13-2-5-1-10-2-10-1-17-2-12-5-22-10-30-8-18-6-12z" fill="#804CC0"/>
<path transform="translate(1069,58)" d="m0 0h19l14 3 16 8 12 11 6 7 8 16 3 9 1 7-1 16-4 12-7 13-9 11-10 8-15 7-9 2-9 1h-13l-15-3-14-7-10-8-8-10-6-10-5-14-1-5v-16l4-15 7-14 11-12 12-9 11-5z" fill="#FC848A"/>
<path transform="translate(829,460)" d="m0 0h30l13 3 10 5 9 7 10 9 8 11 7 14 5 19v22l-4 15-7 13h-4l-17-12-12-5-13-4-17-2h-10l-15 2-15 5-12 6-12 11-4-1-8-17-3-13-1-15 2-15 3-12 7-14 11-12 8-7 14-8 12-4zm9 16-12 5-8 7-4 7-3 8v13l4 11 5 7 10 6 5 2 9 1 10-2 10-4 8-8 5-12 1-9-3-12-6-9-7-6-8-4-4-1z" fill="#814DC1"/>
<path transform="translate(1384,703)" d="m0 0 5 5 12 18 10 16-2 5-3 7h-2v2l-10 7-16 8-18 8-13 5-13 4-8 3-27 9-24 6-2 1h-7l-1 1 5 19 1 6 1 26v18l-2 15-6 15-3 7-4 7h-2l-2 5-4 5-11 9-3 1v2l-7 4-10 6-5 1v2l-10 4-28 4-18 1-22-5-16-8v-2l-5-2-4-3v-2h-2l-5-6-2-1v-2l-4-2-5-5-5-8-4-8-2-2-5-11v-2h-2v-3l-2-1-2-5-3-9-2-1v-2l-6-1-2-1-11 2-17-1-40 1h-22l-6 1h-11l-8-2-2-1h-7l-3-4 15-1 4-1h20l38 1h35l14-1 1-12-111-1-15-1v-1h114l18 1 5-2 3-11 2-7 4-6h2l-1-7h2v-2h2l2-5h2v-6h2v-2h2v-2h2v-2h2l2-5 2-3 5-5 1-2h2l1-2 4-3h3l1-3 8-4h3l1-2 7-2 1-2h2v-2l5-2 8-2 7-1v3h10l11-2 7-1 6-1 10 2 6 3 6 2 10 5 10 6 10 5v2l4 1 2 1v2h2v2l4 2 7 4 6 1 26-4 14-2 15-4 17-5 17-7 13-6 7-4 11-9 5-7 1-17-3-14-2-6-5-8zm-216 63-16 2-21 8-13 7-12 11-9 9-7 11-9 19-4 12-1 6v20l3 14 8 19 7 12 9 11 10 9 14 9 15 6 12 3 7 1h17l16-3 13-5 17-9 11-9 9-9 8-13 7-15 4-14 2-16-1-14-5-19-10-19-8-10-12-12-14-9-19-8-15-4z" fill="#DF7288"/>
<path transform="translate(1172,587)" d="m0 0 2 2 4 15v26l-4 15-6 11-11 12-13 10-14 7-18 4-10 1-76 1 2-5 11-9 2-5-3-5-3-3 8-4 13-8 23-12 26-10 30-8 35-7 4-2 1-7-2-12z" fill="#D05D80"/>
<path transform="translate(1431,778)" d="m0 0h2l9 30 5 25 2 24v40l-3 27-6 24-7 21-11 24-10 18-15 22-12 14-15 16-8 7-13 11-19 13-17 10-21 10-25 9-24 6-24 4-22 2h-32l-14-2-4-2 2-1 9 1 9-3 17-1h8l18-3 3-1 29-1 17-5 13-6 15-5 10-6 12-6 15-9 6-5 15-10 9-8 5-5 4-5 5-5 6-5 7-9 3-5h2v-2h2l2-6 6-10 10-20 4-9 2-9 2-3 2-7 1-3 2-11h2l6-20 2-8 1-14 3-17 1-2v-13l-1-5-1-16 1-9-1-21-1-6z" fill="#FC858A"/>
<path transform="translate(1069,58)" d="m0 0h19l14 3 16 8 12 11 6 7 8 16 3 9 1 7-1 16-4 12-7 13-9 11-10 8-15 7-9 2-9 1h-13l-15-3-14-7-10-8-8-10-6-10-5-14-1-5v-16l4-15 7-14 11-12 12-9 11-5zm12 10-15 2-6 3-4 3v2h-2v2l-4 2-1 3-4 2-7 9-3 6-2 3-2 9 1 7 2 7 2 12 4 9 5 5 4 5 8 7 10 11 12 5h13l12-6 14-11 6-7 5-12 2-3v-15l-2-15-3-10h-2l-1-5-4-5-3-6-7-9-12-5z" fill="#FC9097"/>
<path transform="translate(1126,278)" d="m0 0 6 1 11 3 9 4 10 4 17 9 17 8 20 12 15 8 14 10 9 6 8 6v2l5 2 11 9 11 8 13 13v2h2v2l4 2 8 8v2h2l4 4v2l4 2 9 10 7 9 3 4v2h2l8 11 13 19 6 9 8 15 6 11 13 23 10 23 7 19 10 30 5 22 3 12 3 16 8 24 5 11 3 5v9l-5 13-9 17-4 5-2 2-1-1-1-39-2-22-7-46-3-13-6-22-5-17-6-17-5-12-11-24-10-18-7-14-12-17-6-8-7-12v-2h-2l-1-4h-2l-8-13-8-11-4-4v-2h-2l-7-8v-2h-2l-7-8-5-5-10-9-12-11-11-9-15-11-28-18-23-12-13-5-12-6-20-7-20-6-7-3v-2l-5-1-10-5v-1l14-1z" fill="#E7A966"/>
<path transform="translate(545,1043)" d="m0 0 11 1 12 5 8 6 7 8 4 8 1 3v19l-7 14-7 7-11 6-10 2h-13l-10-3-8-5-7-7-7-14-1-4v-12l4-10 6-9 10-9 12-5z" fill="#FEC486"/>
<path transform="translate(1539,759)" d="m0 0h8l9 2 10 5 7 7 6 11 1 4v14l-4 10-7 9-6 5-13 4h-15l-11-4-8-7-4-5-4-8-1-4v-14l4-10 10-11 14-7z" fill="#FC8F97"/>
<path transform="translate(1166,421)" d="m0 0 5 5 9 17 13 32 9 32 6 31 3 21 1 12v36l-2 5-8 4-3-1-4-10-3-10-8-20-7-12-8-10-10-9-12-7-16-5-19-3-17-1-137-1 5-5h9l15-1h49l21-1h18l35 1 19 3 22 2 7 3v2l4 1 5 5 9 6 11 16v2h2l3 8 2 1 3 7v5h6l-1-5 2-5-1-13-2-5-1-10-2-10-1-17-2-12-5-22-10-30-8-18-6-12z" fill="#8049BF"/>
<path transform="translate(406,677)" d="m0 0h16l10 4 8 7 5 8 2 6v10l-3 8-7 9-6 5-11 4h-12l-10-4-8-6-6-10-1-4v-14l4-9 7-8z" fill="#804AC0"/>
<path transform="translate(1155,400)" d="m0 0 6 5 7 11 13 25 9 19 6 17 7 24 5 19 5 30 2 19 1 23v23l12 2 26 6 33 11 2 2-11-2-18-5-16-4-9-1h-17l-14 4-4 8-1 3-4 21-3 7-9 14-3 1-2 4-4 6-3 3v3l-3 4-11 4h-2v2h-8l-3 1-3-2h-4l-1-2-5 2v2l-6 3-8-1-15-1h-9l-3 2h-15l-19 1-7 2-3 4-2 10-6 2 1-7-4-6-4-5-1-5 60-1 26-2 20-5 16-7 10-7 10-9 9-11 7-14 3-12 1-8v-27l-1-12 2 2 6 20 6-1 5-3 1-4v-36l-3-26-4-23-5-22-8-28-10-24-8-16-18-30z" fill="#F27180"/>
<path transform="translate(841,463)" d="m0 0 13 1 6 2h8l1 1 4-1 4 4 1 4h2l1 2 9 2 7 8 5 9 5 10 7 12 3 15v8l-3 8-2 9-5 5-5 1-15-4v-2l-6-1-3-3-9-3-2-1v-4l5-5 7-11 1-9v-17l-1-7 1-3-2-1 1-2h-2l-1-4-3-3-2-5-4-4h-8l-6-2-12 1 1-4-1-3z" fill="#6B34AB"/>
<path transform="translate(911,685)" d="m0 0h58l9 2 11 7 7-1 4-2-3 13-10 11-10 14-10 16-1-2 7-13 10-15 3-6-10 3h-69l-18 2-5 1v2l-7 1-4 5-4 1-2 4-8 9-1 2h-2l-2 6-5 10-6 26 1 8 3 11 1 5 1 4h2l2 4 5 5 12 13 5 6 10 5 16 5 18 4h7l2-7 6-22h1l-1 9-4 21-6 2h-16l-18-4-12-4-14-8-12-12-8-13-6-16-2-11v-11l2-12 6-16 9-14 6-7 13-9 15-6 18-4 14-1 51-1 7-2 3-6 1-4-10-2-26-1h-16l-25 1-21 3-12 4-3-1 14-6 15-4z" fill="#804DC1"/>
<path transform="translate(1263,238)" d="m0 0h14l29 4 25 6 21 7 25 11 19 10 21 14 13 10 15 13 18 18 9 11 12 15 12 19 10 18 10 23 9 27 5 22 4 28 1 15v19l-2 26-5 28-6 22-2-1 5-21 2-18 1-32v-8l3-16v-13l-4-18-3-12-2-11-5-11-5-17-7-15-8-15-10-15-4-8-7-10-6-11-7-8-5-5-12-14-4-3v-2l-4-2-12-11-12-9-8-4-8-7-5-5-10-6-12-4-10-7-7-6-22-8-14-4-23-4-23-3-9-1z" fill="#FEC486"/>
<path transform="translate(978,256)" d="m0 0 34 2 38 4 49 8 5 2v7l-8 7-21 13-8 4-10-4-26-14-25-15-1-4-27-9z" fill="#356AF1"/>
<path transform="translate(1428,781)" d="m0 0 3 1 1 20v17h-2l-2 10-1 4h-2l-2 5-4 9-5 12-7 14-6 13-8 14-2 1-1 5-1 2h-2l-1 6-8 13-4 9-2 1-3 8h-2l-2 6-4 5-11 14-6 9-5 8h-2l-2 5-6 7-2 4-5 4-7 8-10 10-6 7-6 5h-2l-2 4-3 3h-2l-1 3-8 6h-2v2l-6 4-8 7h-3v2h-3v2l-9 7-5 3h-2l-1 2-9 6-7 4-18 10-11 7-17 9-8 5-1 2h-3v2l-6 3-18 2-3 1v-5l7-2h6l2-1v-2l17-8 12-5 10-7 23-12 3-2h3v-2l5-1 1-3 8-4 11-8 8-5 5-5 8-5h2l1-3 6-4 11-10 7-6 6-7h2v-2h2v-2l4-4h2l1-3h2l2-4 5-5 9-11 4-3 4-7 7-10 8-10 4-4 6-9 4-8 4-6 6-11 8-15 4-6 4-10 4-11 3-3 6-16 2-6h2l1-6 7-15 5-14 3-4 2-5 1-10 1-6 1-18z" fill="#DE7188"/>
<path transform="translate(983,709)" d="m0 0h3l-2 6-13 20-4 8-3 7-12 25-12 32-4 15h-2l-1 8-4 14-3 7-7 1-18-4-19-6v-1h13l10 2 11 4h4l2-5 6-24 8-27 6-14 4-10 4-15 6-12 2-9 1-4v-6l-8-3-26-2h-13l-3 1-14 2-8 3-12 5-8 6-3 1-1 4-4 4h-2l-1 4h-2l-1 3-1-3 3-5 1-2h2l2-4 7-8 10-10h7v-2l5-2 21-2h66z" fill="#6B34AB"/>
<path transform="translate(547,1060)" d="m0 0h8l7 2 9 8 4 10 1 10-2 8-4 7-9 6-9 4h-7l-10-6-6-8-3-7-1-9 1-9 4-7 5-5 4-3z" fill="#FCB266"/>
<path transform="translate(1204,827)" d="m0 0 6 2 4 4-1 5-30 32-22 22-5 3h-7l-9-6-10-9-9-11-3-10 5-5 10 2 9 7 11 10 6-4 33-33 10-8z" fill="#FC9196"/>
<path transform="translate(710,350)" d="m0 0 2 1-12 10-10 8-12 11-5 5h-2l-2 4-3 3h-2l-2 4-8 8-10 13-3 3-1 2h-2l-2 5-6 7-1 2h-2l-2 4-9 14-1 2h-2l-2 5-7 12-5 9-6 12-3 7-13 26-6 16-5 14-9 28-6 26-5 21-5 36-1 22v33l1 18-2-1-2-20-1-2-3-41 3-36 6-26 6-25 7-22 9-26 6-15 11-22 8-15 7-14 8-13 5-9h2l1-4 8-10 8-11 3-4h2l2-4 9-11 7-7 4-5h2v-2h2v-2l5-5 13-12 8-7 7-6h2v-2l10-8z" fill="#6B34AB"/>
<path transform="translate(535,750)" d="m0 0 2 3 6 17 3 5 3 9 3 17 3 6v4l2 1 2 5v8l2 13 3 9 2 9 3 5 2 8 2 6 4 7 4 10 3 6 2 6 6 11 7 13 8 12 6 13 1 4h2l4 5 5 4 4 8 3 5 8 11 8 10 7 9 3 3v2l4 2 11 12 3 2v2l4 2 10 9 15 11 14 12 3 3 10 5 7 5v2h2v2l5 2 16 8v2l5 2 9 5 5 4 9 3 5 4 2 1-1 2-26-13-27-16-20-14-16-12-16-13-11-9-27-27-9-11-14-17-14-19-12-18-12-20-12-23-9-19-13-35-10-35-6-26-6-30z" fill="#5A81EF"/>
<path transform="translate(1537,774)" d="m0 0h8l10 3 3 2v2h2l5 6 1 3v7l-5 16h-2l-2 4-11 6-8-1-3-2v-2l-5-2-4-5-5-15v-10l6-5 4-5z" fill="#FC848A"/>
<path transform="translate(1186,764)" d="m0 0 12 3 10 4 1 2 5 1 14 7 7 4v2l4 1 5 3v2l4 2 3 3 3 9 6 12 5 17 2 21v18l-1 14-4 10-6 12-9 11-4 6h-2v2l-5 3-5 6-3 1-4 4-9 5-11 5-25 3-10 1h-12l-10-2-15-5-7-5-6-3-12-9-5-5v-2l-4-2-5-6-6-9-1-8 3 4 9 14 7 8 11 9 13 8 16 6 16 3h17l16-3 13-5 17-9 11-9 8-8 8-13 7-15 4-14 2-16-1-14-5-19-10-19-8-10-11-11-14-9-19-8-15-4-12-1-1-2z" fill="#FC9296"/>
<path transform="translate(791,504)" d="m0 0 5 5 4 9v3h2l2 6 4 1 5 12 5 8-2 5-9 1v2l-12 4h-8l-10-6-1-9-3-13v-7l2-4 4-3 3-7 5-5z" fill="#6B34AB"/>
<path transform="translate(1177,614)" d="m0 0h1v16l-4 15-6 11-11 12-13 10-14 7-18 4-10 1-76 1 2-5 11-9 2-5-3-5-2-2 6 1 3 2v2h2l4 8 8 4h3l8 1 21 2h9l6-1h5l5-1 2 1v-2l9-1 8-3 4-4h2l1-3h2l2-4 5-5 4-2 7-10 2-5 3-10 6-13h2l1-7z" fill="#DE7188"/>
<path transform="translate(911,685)" d="m0 0h58l9 2 11 7 7-1 4-2-3 13-10 11-10 14-10 16-1-2 7-13 10-15 3-6-10 3h-69l-18 2-5 1v2h-5l2-4 13-4 11-2 14-1 51-1 7-2 3-6 1-4-10-2-26-1h-16l-25 1-21 3-12 4-3-1 14-6 15-4z" fill="#804FC1"/>
<path transform="translate(1187,760)" d="m0 0h7l11 4 8 3 10 5 10 6 10 5v2l4 1 2 1v2h2v2l4 2 7 4 4 2-7 4-7 1-2-8-6-3v-2l-4-1-5-3v-2l-6-2-11-6-5-3-10-4-11-4-6-1h-18v2l-16 2-21 8-13 7-12 11-8 8-7 11-9 19-4 12-1 6v20l3 14 2 7h-2l-3-6v-2h-2l-4-11-5-7h3v-3h2v-7l3-9 1-6h2l1-4-2-1h2v-6l4-4 2-10 3-3 1-3h2l1-4h2l1-4h2l1-3h2l2-6h3l2-4 3-1 1-3 12-6 2-3-2-1 4-1 1-2 7-2 1-2h2v-2l5-2 8-2 7-1v3h10l11-2 7-1z" fill="#F47280"/>
<path transform="translate(1431,778)" d="m0 0h2l9 30 5 25 2 24v40l-3 27-6 24-7 21-11 24-1-3 8-18 5-14 2-14 3-12 2-4v-5l3-5-1-18 1-15v-10l-1-5 1-4-1-16-1-3-2-1-4-11-3-11-2-5z" fill="#FC9096"/>
<path transform="translate(1740,672)" d="m0 0 4 2 4 4-1 7-3 7-5 10-13 13-5 4-12 5-6 1h-8l-5-1 1-4 3-6 7-3 9-8h2l1-3 9-5 5-3 3-2 7-14z" fill="#356AF2"/>
<path transform="translate(1193,615)" d="m0 0h1l2 8 1 2v8l-2 7-3 16-6 11-11 12-7 7-21 13-11 4-1 3-4 2-4 3-4 1-5-1-16-1h-9l-3 2h-15l-19 1-7 2-3 4-2 10-6 2 1-7-4-6-4-5-1-5 60-1 26-2 20-5 16-7 10-7 10-9 9-11 7-14 3-12z" fill="#DD7087"/>
<path transform="translate(1155,400)" d="m0 0 6 5 7 11 13 25 9 19 6 17 7 24 5 19 5 30 2 19 1 23v24l-13 6-2 2h-2l-3 1-2-4-3-28 2 2 6 20 6-1 5-3 1-4v-36l-3-26-4-23-5-22-8-28-10-24-8-16-18-30z" fill="#D05D80"/>
<path transform="translate(751,563)" d="m0 0 2 3 1 11 3 4 6 10 2 1v2h2v2l4 2 5 5 5 6 7 6 10 7 3 1v2l12 2 6 3 21 1 12 3 6-1 8-2 4 1 12-4 10-6 8-5 4-5 1-2h2v-2l6-3-2 5-7 8-10 6-4 3-9 4-12 4-2-1v2l-5 1-16 1-6-1h-11l-10-1-10-2-7-3-11-7h-2v-2l-5-1v-2l-4-2v-2l-5-4-3-5-5-5-7-6-5-7v-2h-2l-3-8v-12z" fill="#6B34AB"/>
<path transform="translate(861,857)" d="m0 0 6 2 12 5 14 3 37 2 2 4-1 2 1 23 3 28 3 12 4 8 2 7v6l-2-3-4-10-8-1-47 4h-53l-27-3-6-1v-1l43 3h25l38-2 27-3 2-3-1-13-2-5-1-9v-5l1-4-2-16-2-9-3-2-7-1-16-3-18-3-6-3-13-7z" fill="#7F49C1"/>
<path transform="translate(1384,703)" d="m0 0 5 5 12 18 10 16-2 5-3 7h-2v2l-10 7-16 8-18 8-13 5-4-1 5-3 26-12 13-10 6-8 1-17-3-14-2-6-5-8z" fill="#DE7188"/>
<path transform="translate(1225,238)" d="m0 0h15v1l-20 3-18 6-18 4-10 3-12 4-14 6-9 4h-3v2l-9 3-9 1-8-1 5-4 28-12 25-9 23-6 25-4z" fill="#FFC486"/>
<path transform="translate(1199,850)" d="m0 0 2 1-8 8-7 8-25 25-5 3h-7l-9-6-10-9-9-11-3-10 5-5 10 2 9 7 11 10-3 1-7-7-8 1-7-1-1 3 2 1 4 4 6 4 6 7 6 3 8-1 2-3h2l2-5 6-5h2l2-5h3v-2l6-4h2v-2l8-7z" fill="#FC9196"/>
<path transform="translate(887,870)" d="m0 0 17 2 11 2 7 1 5 5 2 11 1 19-1 4 2 10 2 8v7h-2l-4-8-4-14-1-14-3-10-6-10-12-5-3-3-8-2v-2z" fill="#6B34AB"/>
<path transform="translate(959,997)" d="m0 0 4 4 9 15 12 16 4 7 12 14 15 15 16 12 19 12 23 12 25 11 21 8 14 7v3l-16-7-16-3-5-3v-2l-5-2-18-8-24-12-18-12-16-13-12-11-8-8-13-17-13-18-10-18z" fill="#7C48C2"/>
<path transform="translate(1057,856)" d="m0 0h2v2h2l1 3v7l-9 3-8 1-44 1h-68l-3-4 15-1 4-1h20l38 1h35l14-1z" fill="#FB9097"/>
<path transform="translate(1128,866)" d="m0 0 10 1 5-1 5 5v2l9 2 5 1 4-2h3l1-3 4-1-1 5-8 6-2 4h-2l-2 4-9 1-8-6-3-3v-2l-4-2-7-5-1-5z" fill="#DE7188"/>
<path transform="translate(949,254)" d="m0 0h18l14 3 15 5 9 4 2 5-5-2-14-7-8-3h-10l-1 1h-9l-17 3-6 1h-17l-23 3-22 4-10 3-4-1 12-4 23-5 11-2 16-2z" fill="#6B34AB"/>
<path transform="translate(1137,772)" d="m0 0 1 2-17 8-10 8-13 13-7 11-9 19-4 12-1 6v20l3 14 2 7h-2l-3-6v-2h-2l-4-11-5-7h3v-3h2v-7l3-9 1-6h2l1-4-2-1h2v-6l4-4 2-10 3-3 1-3h2l1-4h2l1-4h2l1-3h2l2-6h3l2-4 3-1 1-3 12-6z" fill="#FC9296"/>
<path transform="translate(1216,615)" d="m0 0 12 2 26 6 33 11 2 2-11-2-18-5-16-4-9-1h-17l-15 4-3 1-3 4v-8l3-3h2z" fill="#DE7188"/>
<path transform="translate(1193,615)" d="m0 0h1l2 8 1 2v8l-2 7-3 16-6 11-11 12-7 7-21 13-12 5-12 3-17 1 2-2 17-3 16-5 16-8 11-9 7-7 7-10 6-12 3-12z" fill="#FC9695"/>
<path transform="translate(792,454)" d="m0 0h2v2l-10 8-14 14-7 10-6 12-5 16-2 19 2 21 2 8-3-1-4-20v-32l4-7 3-9 5-9 8-12 3-3h2v-2h2v-2l6-4 7-6z" fill="#8B5ABE"/>
<path transform="translate(1186,764)" d="m0 0 12 3 10 4 1 2 5 1 14 7 7 4v2l4 1 5 3v2l4 2 3 3 1 3-4-1-10-4v-2l-3 1-10-9-14-8-21-8-9-2-12-1-1-2z" fill="#FC898A"/>
<path transform="translate(1036,665)" d="m0 0 4 1 3 4v10h2v3h2v2l15 2h46l15-2v2l-21 3-76 1 2-5 11-9 2-5-3-5z" fill="#FC8F97"/>
<path transform="translate(889,485)" d="m0 0h3l4 8 4 13-1 15-2 3-4-2-3-6-2-1-2-9v-9l-1-4 3-7z" fill="#522AC3"/>
<path transform="translate(1431,739)" d="m0 0h2l1 6-3 18-4 4-6-2-4-8-1-7 2-5 10-5z" fill="#7D48C2"/>
<path transform="translate(1199,839)" d="m0 0 4 1 2 3-3 7-5 3-9 9h-2v2l-6 4h-2v2h-2l1-9 2-3h2v-2l4-4 5-7 5-5z" fill="#DE7188"/>
<path transform="translate(1086,902)" d="m0 0 3 4 9 14 7 8 11 9 13 8 16 6 16 3h20l-2 1v2l-10 1h-12l-10-2-15-5-7-5-6-3-12-9-5-5v-2l-4-2-5-6-6-9z" fill="#FC9395"/>
<path transform="translate(1177,614)" d="m0 0h1v16l-4 15-6 11-11 12-13 10-14 7-5 1v-2l12-5 10-7 7-6h2l2-4 7-8 3-7 2-10 5-20z" fill="#FC9296"/>
<path transform="translate(1166,686)" d="m0 0 2 1-7 6-7 4 1 1 5-1 7-2h4v3l-3 4-11 4h-2v2h-8l-3 1-3-2h-4l-2-4 12-5z" fill="#DD7087"/>
<path transform="translate(820,758)" d="m0 0 1 4-1 6v25l4 17 8 16 8 11 9 10 12 9v1l-7-1-5-3-4-5-2-1v-2h-2v-2l-4-2-5-6v-4l-4-2-3-7-1-6h-2l-2-4v-8l-2-9v-28l1-8z" fill="#834EBE"/>
<path transform="translate(1049,654)" d="m0 0 3 1-14 9-9 4-11 8-9 8h-2l2-4 7-12 5-5 6-2 14-2z" fill="#854EBE"/>
<path transform="translate(1153,761)" d="m0 0h4v3l9 1 2 2-16 2-11 4-6 1-9 4h-2v-2l-2-1 4-1 1-2 7-2 1-2h2v-2l5-2 8-2z" fill="#F47882"/>
<path transform="translate(1077,840)" d="m0 0h1l-1 11v20l3 14 2 7h-2l-3-6v-2h-2l-4-11-5-7h3v-3h2v-7l3-9 1-6z" fill="#FC8F97"/>
<path transform="translate(1445,919)" d="m0 0h1l-1 10-7 26-8 21-8 17-1-3 8-18 5-14 2-14 3-12 2-4v-5z" fill="#FC9595"/>
<path transform="translate(893,539)" d="m0 0h6l2 4h6v9l-2 2-5-1-7-3-3-3 1-5z" fill="#522AC3"/>
<path transform="translate(1058,300)" d="m0 0 5 1 6 1-1 4 14 12 8 7 10 9 15 14 4 4-1 2-7-7-8-7-3-2v-2l-4-2-8-6-2-4-9-7-5-2-6-8-4-2z" fill="#7D48C2"/>
<path transform="translate(1030,708)" d="m0 0h34v1l-19 1-2 2-2 5 1 5 1 7-5 2 1-7-4-6-4-5z" fill="#FC9596"/>
<path transform="translate(949,867)" d="m0 0h20l38 1-3 2-65 1-4 1-3-3 13-1z" fill="#FECC97"/>
<path transform="translate(1121,775)" d="m0 0 3 1-2 4-12 6-6 7h-3l-2 6-5 4-1 3h-2l-1 4h-3l-1-3h2v-2h2v-2h2v-2h2l2-5 2-3 5-5 1-2h2l1-2 4-3h3l1-3z" fill="#DE7187"/>
<path transform="translate(949,1154)" d="m0 0h55l11 1v1l-13 1h-40l-13-1z" fill="#6861D4"/>
<path transform="translate(1053,263)" d="m0 0 17 2 29 5 5 2v7l-3 2v-5l-11-4-19-3-15-4z" fill="#6083ED"/>
<path transform="translate(801,1116)" d="m0 0 20 7 13 6 14 4 15 5 17 5-4 1-28-8-23-8-24-10z" fill="#547DF0"/>
<path transform="translate(1086,902)" d="m0 0 3 4 9 14 7 8 11 9 9 6v2l-5-1-10-8-5-5-3-2v-2l-4-2-5-6-6-9z" fill="#FC9694"/>
<path transform="translate(1133,704)" d="m0 0h2v2l-4 2-4 3-4 1-5-1-16-1h-8v-2l-4-1h23l13-2z" fill="#DF7087"/>
<path transform="translate(1165,684)" d="m0 0m-2 1 2 1-5 5-13 8-12 5-12 3-17 1 2-2 17-3 16-5 16-8z" fill="#FC9894"/>
<path transform="translate(978,256)" d="m0 0 34 2 38 4v1h-10l-35-3h-8l-8 1-11-4z" fill="#537BEF"/>
<path transform="translate(832,833)" d="m0 0 4 2 14 13 11 8v1l-7-1-5-3-4-5-2-1v-2h-2v-2l-4-2-5-6z" fill="#7039B0"/>
<path transform="translate(1464,703)" d="m0 0 2 1-16 17-10 11-1-2 7-11 10-10z" fill="#FEC385"/>
<path transform="translate(861,857)" d="m0 0 6 2 12 5 14 3 15 1v1l-21 1-7-2-5-2-13-7z" fill="#9279CC"/>
<path transform="translate(1161,615)" d="m0 0m-7 1h7v2l-30 6-22 6-4-1 24-7z" fill="#7D48C2"/>
<path transform="translate(894,1147)" d="m0 0h9l15 3 26 3 5 1v2l-27-3-28-5z" fill="#5C81EE"/>
<path transform="translate(969,255)" d="m0 0 9 1 18 6 9 4 2 5-5-2-14-7-8-3-9-2z" fill="#7D48C2"/>
<path transform="translate(1166,686)" d="m0 0 2 1-7 6-7 4-3 1v3l-6 3-7-1 1-2 10-4z" fill="#DE7188"/>
<path transform="translate(819,800)" d="m0 0 2 4v8l1 4h2l3 10v3l-4-6v-3h-2v-3h-2l-2-9 1-6z" fill="#6B34AB"/>
<path transform="translate(1008,713)" d="m0 0 4 2 12 10 9 5 4 2h-8l-5-2v-2h-2l-5-6-9-7z" fill="#FC9495"/>
<path transform="translate(1012,718)" d="m0 0 8 6 2 4h2v2l13 2-3 2h-5l-13-7-4-7z" fill="#DE7188"/>
<path transform="translate(1384,1045)" d="m0 0v3l-14 15-8 7-2 1 2-4z" fill="#FC9794"/>
<path transform="translate(842,1132)" d="m0 0 6 1 15 5 17 5-4 1-28-8-6-2z" fill="#5C83F1"/>
<path transform="translate(1357,1071)" d="m0 0h2v2l-17 13-5 2 10-10 5-4h2v-2z" fill="#FC9595"/>
<path transform="translate(1057,856)" d="m0 0h2v2h2l1 3v7l-6 1z" fill="#FC9695"/>
<path transform="translate(981,720)" d="m0 0v3l-12 19-3 3 2-6 7-12z" fill="#7D48C2"/>
<path transform="translate(1153,761)" d="m0 0h4v2l-9 3-10 3-3-1h2v-2l5-2 8-2z" fill="#DE7188"/>
<path transform="translate(1165,684)" d="m0 0m-2 1 2 1-5 5-13 8-5 1-1-2 16-8z" fill="#FC9C93"/>
<path transform="translate(813,442)" d="m0 0h5v2l-16 7-4-1 6-3 6-4z" fill="#9357B4"/>
<path transform="translate(1090,707)" d="m0 0h16l3 2-1 1h-14v-2z" fill="#E8828B"/>
<path transform="translate(779,1105)" d="m0 0 10 3 6 5 2 1-1 2-17-9z" fill="#7590E7"/>
<path transform="translate(1146,877)" d="m0 0h6l2 1-1 4-6 1-2-5z" fill="#D05D80"/>
<path transform="translate(1139,699)" d="m0 0h3v2l-9 4h-7l3-3z" fill="#FC9495"/>
<path transform="translate(1488,671)" d="m0 0v3l-10 15-2 1 2-5 7-11z" fill="#FFC486"/>
<path transform="translate(1172,587)" d="m0 0 2 2 4 15v4h-2l-1-2-2-12z" fill="#DD7B81"/>
<path transform="translate(1030,684)" d="m0 0 2 4 6 2v1h-12l2-5z" fill="#FEC78D"/>
<path transform="translate(1071,300)" d="m0 0 2 1v9l-4-2-2-4z" fill="#D05D80"/>
<path transform="translate(1141,676)" d="m0 0m-1 1m-2 1h2l-1 3-9 4-5 1v-2l12-5z" fill="#FC9794"/>
<path transform="translate(1148,699)" d="m0 0h3v2l-6 3-7-1 1-2z" fill="#EF7181"/>
<path transform="translate(985,691)" d="m0 0h12l-1 3-7 1z" fill="#6B34AB"/>
<path transform="translate(821,440)" d="m0 0h7l2 2-12 2 1-3z" fill="#7F58C4"/>
<path transform="translate(1095,329)" d="m0 0 4 2 9 8-1 2-10-9z" fill="#D05D80"/>
<path transform="translate(969,255)" d="m0 0 9 1 7 3-3 1-11-3z" fill="#794BC5"/>
</svg>
