<?xml version="1.0" encoding="UTF-8"?>
<svg version="1.1" viewBox="0 0 2048 331" width="1280" height="1280" xmlns="http://www.w3.org/2000/svg">
<path transform="translate(819,117)" d="m0 0h17l9 2 8 5 7 8 4 10 1 6v13l-7 37-4 32-3 12-4 6-4 1-6-4-4-6-37-8-10-5-7-8-4-9-1-8 2-13 6-11 9-9 16-8 16-3h18l2-4v-8l-4-4-9-1-15 4-17 6-5-1-4-7-2-10 4-5 15-7zm15 61-22 4-9 3-7 8-2 5v6l5 5 8 4 10 3 11 1 6-3 5-16 1-6v-10l-2-4z" fill="#070707"/>
<path transform="translate(1e3 117)" d="m0 0h16l9 2 10 6 7 10 3 12v16l-7 35-4 32-3 13-4 5-4 1-6-4-4-6-33-7-12-5-6-5-5-8-3-11 1-11 5-12 9-10 11-7 11-4 12-2h18l2-3v-9l-3-4-8-1-14 3-20 7h-4l-4-6-2-6v-8l9-6 12-5zm14 61-22 4-8 3-7 6-3 7 1 7 5 5 14 5 10 2 8-1 4-6 4-16v-12l-2-4z" fill="#070707"/>
<path transform="translate(1106,82)" d="m0 0h9l8 4 3 3-1 9-5 15-3 15-2 23 14-2h18l5 3 2 2v6l-6 7-11 4-27 1 3 55 2 26 1 28-3 5-3 2h-8l-6-4-2-6-3-29-4-53-2-18v-5l-14 6-5 1h-10l-5-3-3-5v-5l5-6 12-5 15-4 6-4 3-7 6-47 2-6 6-5z" fill="#060606"/>
<path transform="translate(723,119)" d="m0 0h10l21 8 10 6 8 8 1 2v6l-4 6-4 3-7-1-16-8-11-5h-12l-6 2v8l7 8 11 5 18 8 12 8 8 7 3 6v12l-5 12-9 10-10 7-10 4-13 2-16-1-10-4-8-7-5-8v-8l5-6 6-3 5 1 9 11 4 2h14l8-3 6-5 2-4v-7l-4-5-16-8-20-9-9-6-7-7-4-8v-9l4-9 11-11 10-6z" fill="#070707"/>
<path transform="translate(1172,104)" d="m0 0h8l4 2 2 3v13l-2 26v10l1 13 2 3 11-13 7-7 10-5 6-1 8 2 3 4 7 30 3 19 1 10v23l-3 5-4 1h-11l-5-5-3-9-1-10-1-24-2-12-1-4-5 3-11 14-9 15-7 12-4 3h-12l-5-1-1-6 1-35 1-15v-47l3-9 6-7z" fill="#060606"/>
<path transform="translate(880,114)" d="m0 0 9 1 7 6 4 8 2 9 2 1 8-6 11-11 6-3 6-1 11 4 5 5-1 5-9 10-8 8-11 9-8 8-4 7-4 18v9l6 10 1 3v8l-3 8-4 6-6 4-8 1-8-4-4-6-2-44-2-23-3-15-5-16v-8l4-6 5-4z" fill="#060606"/>
<path transform="translate(1269,135)" d="m0 0h10l6 4 3 4v5l-4 7-2 10-2 19v39l-3 2-6 1h-9l-5-3-3-9-1-8v-11l2-34 2-13 4-8 5-4z" fill="#080808"/>
<path transform="translate(1275,89)" d="m0 0 9 1 5 3 2 4v8l-4 8-6 5-8 1-8-3-4-5-1-2v-9l4-7 5-3z" fill="#0A0A0A"/>
</svg>
